<?xml version="1.0" encoding="UTF-8" standalone="no"?>
<!-- Created with Inkscape (http://www.inkscape.org/) -->

<svg
   xmlns:dc="http://purl.org/dc/elements/1.1/"
   xmlns:cc="http://creativecommons.org/ns#"
   xmlns:rdf="http://www.w3.org/1999/02/22-rdf-syntax-ns#"
   xmlns:svg="http://www.w3.org/2000/svg"
   xmlns="http://www.w3.org/2000/svg"
   xmlns:sodipodi="http://sodipodi.sourceforge.net/DTD/sodipodi-0.dtd"
   xmlns:inkscape="http://www.inkscape.org/namespaces/inkscape"
   id="svg2"
   version="1.1"
   inkscape:version="0.92.1 r"
   width="300"
   height="190"
   xml:space="preserve"
   sodipodi:docname="fishtank.svg"
   inkscape:export-filename="/home/guilherme/Dropbox/ModCurso/Aulas/02/Figures/fishtank_1.png"
   inkscape:export-xdpi="125"
   inkscape:export-ydpi="125"><metadata
     id="metadata8"><rdf:RDF><cc:Work
         rdf:about=""><dc:format>image/svg+xml</dc:format><dc:type
           rdf:resource="http://purl.org/dc/dcmitype/StillImage" /><dc:title></dc:title></cc:Work></rdf:RDF></metadata><defs
     id="defs6"><marker
       inkscape:stockid="TriangleOutL"
       orient="auto"
       refY="0"
       refX="0"
       id="marker5153"
       style="overflow:visible"
       inkscape:isstock="true"><path
         id="path5151"
         d="M 5.77,0 -2.88,5 V -5 Z"
         style="fill:#000000;fill-opacity:1;fill-rule:evenodd;stroke:#000000;stroke-width:1.00000003pt;stroke-opacity:1"
         transform="scale(0.8)"
         inkscape:connector-curvature="0" /></marker><inkscape:perspective
       sodipodi:type="inkscape:persp3d"
       inkscape:vp_x="0 : 167.89999 : 1"
       inkscape:vp_y="0 : 1000 : 0"
       inkscape:vp_z="428.33331 : 167.89999 : 1"
       inkscape:persp3d-origin="214.16666 : 111.93333 : 1"
       id="perspective5111" /><marker
       inkscape:isstock="true"
       style="overflow:visible"
       id="marker8469"
       refX="0"
       refY="0"
       orient="auto"
       inkscape:stockid="TriangleOutL"
       inkscape:collect="always"><path
         transform="scale(0.8)"
         style="fill:#000000;fill-opacity:1;fill-rule:evenodd;stroke:#000000;stroke-width:1.00000003pt;stroke-opacity:1"
         d="M 5.77,0 -2.88,5 V -5 Z"
         id="path8467"
         inkscape:connector-curvature="0" /></marker><marker
       inkscape:stockid="TriangleOutL"
       orient="auto"
       refY="0"
       refX="0"
       id="marker7087"
       style="overflow:visible"
       inkscape:isstock="true"><path
         id="path7085"
         d="M 5.77,0 -2.88,5 V -5 Z"
         style="fill:#000000;fill-opacity:1;fill-rule:evenodd;stroke:#000000;stroke-width:1.00000003pt;stroke-opacity:1"
         transform="scale(0.8)"
         inkscape:connector-curvature="0" /></marker><marker
       inkscape:isstock="true"
       style="overflow:visible"
       id="marker5083"
       refX="0"
       refY="0"
       orient="auto"
       inkscape:stockid="TriangleOutL"><path
         transform="scale(0.8)"
         style="fill:#000000;fill-opacity:1;fill-rule:evenodd;stroke:#000000;stroke-width:1.00000003pt;stroke-opacity:1"
         d="M 5.77,0 -2.88,5 V -5 Z"
         id="path5081"
         inkscape:connector-curvature="0" /></marker><clipPath
       id="clipPath4903"
       clipPathUnits="userSpaceOnUse"><path
         inkscape:connector-curvature="0"
         id="path4901"
         d="m 106.09,449.51 h 382.001 v 254 H 106.09 Z" /></clipPath></defs><sodipodi:namedview
     pagecolor="#ffffff"
     bordercolor="#666666"
     borderopacity="1"
     objecttolerance="10"
     gridtolerance="10"
     guidetolerance="10"
     inkscape:pageopacity="1"
     inkscape:pageshadow="2"
     inkscape:window-width="1920"
     inkscape:window-height="1044"
     id="namedview4"
     showgrid="false"
     inkscape:zoom="3.0211836"
     inkscape:cx="159.3768"
     inkscape:cy="135.19385"
     inkscape:window-x="0"
     inkscape:window-y="0"
     inkscape:window-maximized="1"
     inkscape:current-layer="layer1"
     inkscape:snap-object-midpoints="true"
     inkscape:snap-smooth-nodes="false"
     inkscape:snap-center="true"
     inkscape:snap-page="true"
     showguides="true"
     inkscape:guide-bbox="true"
     inkscape:snap-others="true"
     inkscape:object-nodes="false"
     inkscape:snap-nodes="true"><sodipodi:guide
       position="489.63174,105.32232"
       orientation="1,0"
       id="guide6836"
       inkscape:locked="false" /></sodipodi:namedview><g
     inkscape:groupmode="layer"
     id="layer1"
     inkscape:label="lizards"
     transform="translate(0,-146.79991)"><text
       xml:space="preserve"
       style="font-style:normal;font-variant:normal;font-weight:normal;font-stretch:normal;font-size:17.5px;line-height:125%;font-family:'Crimson Text';-inkscape-font-specification:'Crimson Text';letter-spacing:0px;word-spacing:0px;fill:#000000;fill-opacity:1;stroke:none;stroke-width:1px;stroke-linecap:butt;stroke-linejoin:miter;stroke-opacity:1"
       x="24.809256"
       y="211.34933"
       id="text4705"><tspan
         sodipodi:role="line"
         id="tspan4703"
         x="24.809256"
         y="225.79025" /></text>
<path
       style="fill:#d40000;stroke-width:0.0744139"
       d="m 172.37041,292.20142 c -3.30146,-3.82674 -6.01875,-6.9577 -6.03842,-6.9577 -0.0196,0 -0.42786,0.29517 -0.9071,0.65592 -2.37333,1.78664 -5.75821,4.09037 -7.75461,5.27778 -1.51814,0.90295 -2.26359,1.30548 -4.05556,2.18991 -6.77343,3.34307 -11.78451,3.86552 -19.16158,1.99773 -3.43258,-0.86909 -5.96604,-1.95142 -9.08587,-3.88165 -2.28402,-1.4131 -5.43921,-3.87096 -6.94304,-5.40855 l -0.4392,-0.44906 0.16964,-0.39567 c 0.34569,-0.80635 1.35773,-2.76536 1.98039,-3.83346 3.39472,-5.82327 7.56752,-10.29417 11.9677,-12.82262 1.80271,-1.03588 3.57641,-1.74255 5.47577,-2.18163 1.42308,-0.32898 1.96567,-0.38479 3.7207,-0.38274 1.88764,0.002 2.81458,0.12585 4.45984,0.59492 6.74103,1.92191 14.06542,7.98419 20.58044,17.03411 l 0.14882,0.20673 0.66973,-0.51204 c 3.81716,-2.91841 9.81237,-8.02315 12.19205,-10.38117 0.94482,-0.9362 1.24654,-1.19114 1.52014,-1.28436 0.18773,-0.0639 0.35212,-0.11631 0.36529,-0.11631 0.0132,0 0.0239,0.17771 0.0239,0.39492 0,0.31977 -0.12178,0.70564 -0.64,2.02778 -1.86514,4.75857 -2.67492,7.77946 -2.93887,10.96346 -0.27475,3.31405 0.28402,8.63769 1.35499,12.90958 0.12181,0.48586 0.21157,0.89204 0.19948,0.90262 -0.0412,0.036 -0.79826,0.4092 -0.8302,0.4092 -0.0175,0 -2.73302,-3.13096 -6.03449,-6.9577 z m 4.59697,1.84175 c -0.41579,-2.60898 -0.55484,-4.20244 -0.55681,-6.381 -0.004,-3.49127 0.44798,-6.27517 1.68762,-10.41375 0.26765,-0.89357 0.47455,-1.63675 0.45977,-1.65153 -0.0148,-0.0147 -0.91148,0.73223 -1.99269,1.66002 -1.0812,0.92779 -3.3555,2.84876 -5.054,4.26881 -1.6985,1.42005 -3.22123,2.699 -3.38386,2.84209 l -0.29568,0.26016 0.21811,0.28927 c 1.19374,1.58332 8.99116,10.67002 9.15607,10.67002 0.005,0 -0.10317,-0.69485 -0.23853,-1.54409 z m -33.06367,0.6493 c 3.92708,-0.40912 7.83941,-1.90712 12.98523,-4.97194 2.38337,-1.41953 7.85067,-5.22208 7.85067,-5.46021 0,-0.0379 -0.35255,-0.53112 -0.78345,-1.09606 -2.97825,-3.90478 -7.16348,-8.21385 -10.1926,-10.49421 -2.5438,-1.915 -4.86551,-3.22767 -7.19481,-4.0679 -4.28108,-1.54428 -8.34745,-1.27712 -12.56562,0.82553 -2.09452,1.04408 -3.83469,2.33654 -6.0138,4.46662 -2.9133,2.84775 -5.39258,6.2262 -7.40293,10.08774 l -0.64097,1.23119 0.53801,0.52494 c 2.32854,2.27204 6.89167,5.23827 10.28154,6.68344 2.52569,1.07676 5.98319,1.95163 8.95838,2.26678 0.82655,0.0875 3.35541,0.0901 4.18035,0.005 z m -14.95189,-13.54906 c -0.90242,-0.27594 -1.99885,-1.72372 -2.12435,-2.80509 -0.16522,-1.4236 0.71493,-3.10589 1.93805,-3.70431 0.55392,-0.27101 1.48365,-0.33543 2.12823,-0.14746 2.04257,0.59561 3.03696,3.04787 2.0365,5.02217 -0.2725,0.53777 -0.94763,1.23008 -1.42939,1.46579 -0.36985,0.18095 -0.50654,0.2036 -1.35266,0.22411 -0.51769,0.0126 -1.05605,-0.0122 -1.19638,-0.0553 z m 1.73479,-1.27319 c 0.45278,-0.1332 1.103,-0.80729 1.24096,-1.28654 0.30328,-1.05346 -0.12736,-2.20102 -0.99848,-2.66066 -0.232,-0.12241 -0.43713,-0.16266 -0.82916,-0.16266 -0.63325,0 -0.99832,0.16862 -1.43213,0.66145 -0.35888,0.4077 -0.50458,0.86701 -0.49695,1.56656 0.006,0.62479 0.17207,0.99415 0.62986,1.40773 0.58206,0.52587 1.19027,0.67878 1.8859,0.47412 z"
       id="path5105"
       inkscape:connector-curvature="0" /><path
       inkscape:connector-curvature="0"
       id="path5107"
       d="m 249.96048,215.21617 c -3.30146,-3.82674 -6.01874,-6.9577 -6.03842,-6.9577 -0.0197,0 -0.42786,0.29517 -0.90709,0.65592 -2.37334,1.78663 -5.75822,4.09037 -7.75461,5.27778 -1.51815,0.90294 -2.26359,1.30547 -4.05556,2.18991 -6.77343,3.34307 -11.78452,3.86552 -19.16158,1.99772 -3.43258,-0.86908 -5.96605,-1.95141 -9.08588,-3.88164 -2.28402,-1.4131 -5.43921,-3.87096 -6.94303,-5.40855 l -0.4392,-0.44906 0.16963,-0.39567 c 0.34569,-0.80636 1.35773,-2.76536 1.9804,-3.83346 3.39471,-5.82327 7.5675,-10.29417 11.96769,-12.82262 1.80271,-1.03588 3.57641,-1.74255 5.47578,-2.18163 1.42306,-0.32898 1.96566,-0.38479 3.72069,-0.38274 1.88765,0.002 2.81458,0.12585 4.45984,0.59492 6.74102,1.92191 14.06542,7.98419 20.58044,17.03411 l 0.14882,0.20673 0.66973,-0.51204 c 3.81716,-2.91841 9.81237,-8.02315 12.19206,-10.38117 0.94481,-0.9362 1.24654,-1.19114 1.52013,-1.28436 0.18773,-0.0639 0.35213,-0.11631 0.36529,-0.11631 0.0132,0 0.0239,0.17771 0.0239,0.39492 0,0.31977 -0.12179,0.70563 -0.64,2.02778 -1.86514,4.75857 -2.67492,7.77946 -2.93888,10.96346 -0.27474,3.31405 0.28403,8.63769 1.355,12.90958 0.12181,0.48586 0.21157,0.89204 0.19949,0.90262 -0.0412,0.036 -0.79827,0.4092 -0.83022,0.4092 -0.0175,0 -2.73302,-3.13096 -6.03447,-6.9577 z m 4.59698,1.84175 c -0.4158,-2.60898 -0.55485,-4.20244 -0.55682,-6.381 -0.004,-3.49127 0.44798,-6.27517 1.68762,-10.41375 0.26765,-0.89357 0.47455,-1.63675 0.45977,-1.65153 -0.0148,-0.0147 -0.91147,0.73223 -1.99269,1.66002 -1.0812,0.92779 -3.3555,2.84876 -5.05399,4.26881 -1.6985,1.42005 -3.22123,2.699 -3.38386,2.84209 l -0.29568,0.26016 0.2181,0.28927 c 1.19375,1.58332 8.99116,10.67001 9.15607,10.67001 0.005,0 -0.10318,-0.69484 -0.23852,-1.54408 z m -33.06368,0.6493 c 3.92708,-0.40912 7.83941,-1.90712 12.98523,-4.97194 2.38338,-1.41953 7.85066,-5.22208 7.85066,-5.46021 0,-0.0378 -0.35254,-0.53112 -0.78344,-1.09606 -2.97825,-3.90478 -7.16347,-8.21385 -10.19261,-10.49421 -2.54379,-1.915 -4.8655,-3.22767 -7.19479,-4.06791 -4.28109,-1.54427 -8.34745,-1.27711 -12.56563,0.82554 -2.09453,1.04408 -3.83469,2.33654 -6.0138,4.46662 -2.91329,2.84775 -5.39258,6.2262 -7.40293,10.08774 l -0.64097,1.23118 0.53801,0.52495 c 2.32854,2.27204 6.89168,5.23827 10.28154,6.68344 2.5257,1.07676 5.98319,1.95163 8.95837,2.26678 0.82656,0.0875 3.35541,0.0901 4.18036,0.005 z"
       style="fill:#0000ff;stroke-width:0.0744139"
       sodipodi:nodetypes="csccscccccccccccccccsscsccsccsccccccccsscssccccsccscccc" /><path
       style="fill:#0000ff;stroke-width:0.0744139"
       d="m 45.01901,215.21617 c 3.30146,-3.82674 6.01875,-6.9577 6.03842,-6.9577 0.0196,0 0.42787,0.29517 0.9071,0.65592 2.37334,1.78663 5.75821,4.09037 7.75462,5.27778 1.51813,0.90294 2.26358,1.30547 4.05555,2.18991 6.77343,3.34307 11.78451,3.86552 19.16158,1.99772 3.43259,-0.86908 5.96604,-1.95141 9.08588,-3.88164 2.28402,-1.4131 5.43921,-3.87096 6.94303,-5.40855 l 0.4392,-0.44906 -0.16963,-0.39567 c -0.3457,-0.80636 -1.35773,-2.76536 -1.9804,-3.83346 -3.39471,-5.82327 -7.56751,-10.29417 -11.9677,-12.82262 -1.8027,-1.03588 -3.5764,-1.74255 -5.47576,-2.18163 -1.42308,-0.32898 -1.96567,-0.38479 -3.7207,-0.38274 -1.88765,0.002 -2.81459,0.12585 -4.45985,0.59492 -6.74102,1.92191 -14.06542,7.98419 -20.58043,17.03411 l -0.14883,0.20673 -0.66972,-0.51204 C 46.41421,203.42974 40.419,198.325 38.03931,195.96698 c -0.94481,-0.9362 -1.24654,-1.19114 -1.52014,-1.28436 -0.18773,-0.0639 -0.35212,-0.11631 -0.36528,-0.11631 -0.0132,0 -0.0239,0.17771 -0.0239,0.39492 0,0.31977 0.12179,0.70563 0.64,2.02778 1.86514,4.75857 2.67493,7.77946 2.93888,10.96346 0.27474,3.31405 -0.28403,8.63769 -1.355,12.90958 -0.12181,0.48586 -0.21157,0.89204 -0.19948,0.90262 0.0412,0.036 0.79826,0.4092 0.83021,0.4092 0.0175,0 2.73302,-3.13096 6.03448,-6.9577 z m -4.59697,1.84175 c 0.4158,-2.60898 0.55485,-4.20244 0.55682,-6.381 0.004,-3.49127 -0.44799,-6.27517 -1.68762,-10.41375 -0.26765,-0.89357 -0.47455,-1.63675 -0.45978,-1.65153 0.0148,-0.0147 0.91149,0.73223 1.99269,1.66002 1.08121,0.92779 3.35551,2.84876 5.054,4.26881 1.6985,1.42005 3.22124,2.699 3.38386,2.84209 l 0.29568,0.26016 -0.2181,0.28927 c -1.19375,1.58332 -8.99116,10.67001 -9.15607,10.67001 -0.005,0 0.10317,-0.69484 0.23852,-1.54408 z m 33.06367,0.6493 c -3.92707,-0.40912 -7.8394,-1.90712 -12.98523,-4.97194 -2.38336,-1.41953 -7.85066,-5.22208 -7.85066,-5.46021 0,-0.0378 0.35255,-0.53112 0.78344,-1.09606 2.97826,-3.90478 7.16348,-8.21385 10.19261,-10.49421 2.5438,-1.915 4.8655,-3.22767 7.1948,-4.06791 4.28109,-1.54427 8.34746,-1.27711 12.56563,0.82554 2.09452,1.04408 3.83468,2.33654 6.01379,4.46662 2.9133,2.84775 5.39259,6.2262 7.40293,10.08774 l 0.64098,1.23118 -0.53801,0.52495 c -2.32855,2.27204 -6.89168,5.23827 -10.28154,6.68344 -2.5257,1.07676 -5.98319,1.95163 -8.95838,2.26678 -0.82655,0.0875 -3.35541,0.0901 -4.18036,0.005 z"
       id="path5109"
       inkscape:connector-curvature="0"
       sodipodi:nodetypes="cscccccccccsccccccccssccccsccccccsccccscccscsccscccsccc" /><rect
       style="opacity:1;fill:none;fill-opacity:1;stroke:#000000;stroke-width:3.43898916;stroke-linecap:round;stroke-linejoin:round;stroke-miterlimit:4;stroke-dasharray:none;stroke-dashoffset:0;stroke-opacity:1"
       id="rect5127"
       width="265.63467"
       height="155.40532"
       x="15.99913"
       y="163.20656" /><path
       style="fill:none;fill-rule:evenodd;stroke:#000000;stroke-width:0.80533576px;stroke-linecap:butt;stroke-linejoin:miter;stroke-opacity:1;marker-end:url(#marker5153)"
       d="M 114.96297,270.23114 C 85.10791,270.76426 74.97852,233.44545 74.97852,233.44545"
       id="path5129"
       inkscape:connector-curvature="0" /><path
       inkscape:connector-curvature="0"
       id="path5131"
       d="m 187.34411,270.23114 c 29.85506,0.53312 39.98445,-36.78569 39.98445,-36.78569"
       style="fill:none;fill-rule:evenodd;stroke:#000000;stroke-width:0.80533576px;stroke-linecap:butt;stroke-linejoin:miter;stroke-opacity:1;marker-end:url(#marker8469)" /><path
       style="opacity:1;fill:none;fill-opacity:1;stroke:#0000ff;stroke-width:1.24814475;stroke-linecap:round;stroke-linejoin:round;stroke-miterlimit:4;stroke-dasharray:none;stroke-dashoffset:0;stroke-opacity:1"
       d="m 91.191006,202.24455 c 3e-6,1.39026 -0.953785,2.59897 -2.30594,2.92224 -1.352154,0.32327 -2.749506,-0.32332 -3.378329,-1.56324 -0.628824,-1.23992 -0.324881,-2.74932 0.734833,-3.64922 1.611647,0.84884 3.277263,1.57294 4.949436,2.29022 z"
       id="path5191"
       inkscape:connector-curvature="0"
       sodipodi:nodetypes="csscc" /><path
       sodipodi:nodetypes="csscc"
       inkscape:connector-curvature="0"
       id="path5217"
       d="m 203.88503,202.24455 c 0,1.39026 0.95379,2.59897 2.30594,2.92224 1.35216,0.32327 2.74951,-0.32332 3.37833,-1.56324 0.62883,-1.23992 0.32488,-2.74932 -0.73483,-3.64922 -1.61165,0.84884 -3.27726,1.57294 -4.94944,2.29022 z"
       style="opacity:1;fill:none;fill-opacity:1;stroke:#0000ff;stroke-width:1.24814475;stroke-linecap:round;stroke-linejoin:round;stroke-miterlimit:4;stroke-dasharray:none;stroke-dashoffset:0;stroke-opacity:1" /></g><g
     inkscape:groupmode="layer"
     id="layer2"
     inkscape:label="connections"
     transform="translate(0,-146.79991)" /><g
     id="g10"
     inkscape:groupmode="layer"
     inkscape:label="elements"
     transform="matrix(1.25,0,0,-1.25,0,190.00009)" /></svg>